<svg xmlns="http://www.w3.org/2000/svg" width="495" height="195" viewBox="0 0 495 195" role="img" aria-labelledby="title desc">
  <title id="title">AlexeyBuryanov GitHub Top Languages</title>
  <desc id="desc">Static summary of the main languages used across AlexeyBuryanov public repositories.</desc>
  <rect width="495" height="195" rx="8" fill="#312e5a"/>
  <rect x="1" y="1" width="493" height="193" rx="7" fill="none" stroke="#e4e2e2" stroke-width="2"/>
  <text x="24" y="42" fill="#ffde59" font-family="Segoe UI, Arial, sans-serif" font-size="18" font-weight="700">Most Used Languages</text>
  <rect x="24" y="62" width="246.78" height="12" rx="6" fill="#178600"/>
  <rect x="270.78" y="62" width="145.17" height="12" rx="0" fill="#b07219"/>
  <rect x="415.95" y="62" width="14.54" height="12" rx="0" fill="#4F5D95"/>
  <rect x="430.49" y="62" width="14.54" height="12" rx="0" fill="#438eff"/>
  <rect x="445.03" y="62" width="14.54" height="12" rx="0" fill="#3178c6"/>
  <rect x="459.57" y="62" width="11.43" height="12" rx="0" fill="#f1e05a"/>

  <circle cx="32" cy="108" r="6" fill="#178600"/>
  <text x="48" y="113" fill="#ffffff" font-family="Segoe UI, Arial, sans-serif" font-size="15">C# 54.84%</text>

  <circle cx="32" cy="142" r="6" fill="#b07219"/>
  <text x="48" y="147" fill="#ffffff" font-family="Segoe UI, Arial, sans-serif" font-size="15">Java 32.26%</text>

  <circle cx="182" cy="108" r="6" fill="#4F5D95"/>
  <text x="198" y="113" fill="#ffffff" font-family="Segoe UI, Arial, sans-serif" font-size="15">PHP 3.23%</text>

  <circle cx="182" cy="142" r="6" fill="#438eff"/>
  <text x="198" y="147" fill="#ffffff" font-family="Segoe UI, Arial, sans-serif" font-size="15">Objective-C 3.23%</text>

  <circle cx="358" cy="108" r="6" fill="#3178c6"/>
  <text x="374" y="113" fill="#ffffff" font-family="Segoe UI, Arial, sans-serif" font-size="15">TypeScript 3.23%</text>

  <circle cx="358" cy="142" r="6" fill="#f1e05a"/>
  <text x="374" y="147" fill="#ffffff" font-family="Segoe UI, Arial, sans-serif" font-size="15">JavaScript 3.23%</text>
</svg>
